<mxfile host="Electron" modified="2024-04-18T20:04:45.706Z" agent="Mozilla/5.0 (Macintosh; Intel Mac OS X 10_15_7) AppleWebKit/537.36 (KHTML, like Gecko) draw.io/24.1.0 Chrome/120.0.6099.109 Electron/28.1.0 Safari/537.36" etag="gPnYoIX0twp_v97DM8H8" version="24.1.0" type="device">
  <diagram name="Page-1" id="GSGBhSImOyZunkoq04ns">
    <mxGraphModel dx="489" dy="354" grid="1" gridSize="10" guides="1" tooltips="1" connect="1" arrows="1" fold="1" page="1" pageScale="1" pageWidth="3300" pageHeight="2339" math="0" shadow="0">
      <root>
        <mxCell id="0" />
        <mxCell id="1" parent="0" />
        <mxCell id="KGmYxeqbnvMfP7wxilmC-1" value="" style="rounded=0;whiteSpace=wrap;html=1;fillColor=none;" vertex="1" parent="1">
          <mxGeometry x="280" y="160" width="480" height="320" as="geometry" />
        </mxCell>
        <mxCell id="KGmYxeqbnvMfP7wxilmC-14" value="" style="endArrow=none;dashed=1;html=1;dashPattern=1 3;strokeWidth=1;rounded=0;" edge="1" parent="1">
          <mxGeometry width="50" height="50" relative="1" as="geometry">
            <mxPoint x="560" y="480" as="sourcePoint" />
            <mxPoint x="560" y="160" as="targetPoint" />
          </mxGeometry>
        </mxCell>
        <mxCell id="KGmYxeqbnvMfP7wxilmC-2" value="" style="endArrow=none;html=1;rounded=0;entryX=0.5;entryY=0;entryDx=0;entryDy=0;exitX=0.5;exitY=1;exitDx=0;exitDy=0;" edge="1" parent="1" source="KGmYxeqbnvMfP7wxilmC-1" target="KGmYxeqbnvMfP7wxilmC-1">
          <mxGeometry width="50" height="50" relative="1" as="geometry">
            <mxPoint x="510" y="420" as="sourcePoint" />
            <mxPoint x="560" y="370" as="targetPoint" />
          </mxGeometry>
        </mxCell>
        <mxCell id="KGmYxeqbnvMfP7wxilmC-3" value="" style="endArrow=none;html=1;rounded=0;entryX=0;entryY=0.5;entryDx=0;entryDy=0;exitX=1;exitY=0.5;exitDx=0;exitDy=0;" edge="1" parent="1" source="KGmYxeqbnvMfP7wxilmC-1" target="KGmYxeqbnvMfP7wxilmC-1">
          <mxGeometry width="50" height="50" relative="1" as="geometry">
            <mxPoint x="530" y="570" as="sourcePoint" />
            <mxPoint x="530" y="170" as="targetPoint" />
          </mxGeometry>
        </mxCell>
        <mxCell id="KGmYxeqbnvMfP7wxilmC-4" value="x-axis" style="text;html=1;align=center;verticalAlign=middle;whiteSpace=wrap;rounded=0;" vertex="1" parent="1">
          <mxGeometry x="698" y="290" width="60" height="30" as="geometry" />
        </mxCell>
        <mxCell id="KGmYxeqbnvMfP7wxilmC-5" value="y-axis" style="text;html=1;align=center;verticalAlign=middle;whiteSpace=wrap;rounded=0;" vertex="1" parent="1">
          <mxGeometry x="458" y="160" width="60" height="30" as="geometry" />
        </mxCell>
        <mxCell id="KGmYxeqbnvMfP7wxilmC-15" value="" style="endArrow=none;dashed=1;html=1;dashPattern=1 3;strokeWidth=1;rounded=0;" edge="1" parent="1">
          <mxGeometry width="50" height="50" relative="1" as="geometry">
            <mxPoint x="599.8" y="480" as="sourcePoint" />
            <mxPoint x="599.8" y="160" as="targetPoint" />
          </mxGeometry>
        </mxCell>
        <mxCell id="KGmYxeqbnvMfP7wxilmC-16" value="" style="endArrow=none;dashed=1;html=1;dashPattern=1 3;strokeWidth=1;rounded=0;" edge="1" parent="1">
          <mxGeometry width="50" height="50" relative="1" as="geometry">
            <mxPoint x="639.8" y="480" as="sourcePoint" />
            <mxPoint x="639.8" y="160" as="targetPoint" />
          </mxGeometry>
        </mxCell>
        <mxCell id="KGmYxeqbnvMfP7wxilmC-17" value="" style="endArrow=none;dashed=1;html=1;dashPattern=1 3;strokeWidth=1;rounded=0;" edge="1" parent="1">
          <mxGeometry width="50" height="50" relative="1" as="geometry">
            <mxPoint x="679.8" y="480" as="sourcePoint" />
            <mxPoint x="679.8" y="160" as="targetPoint" />
          </mxGeometry>
        </mxCell>
        <mxCell id="KGmYxeqbnvMfP7wxilmC-18" value="" style="endArrow=none;dashed=1;html=1;dashPattern=1 3;strokeWidth=1;rounded=0;" edge="1" parent="1">
          <mxGeometry width="50" height="50" relative="1" as="geometry">
            <mxPoint x="719.8" y="480" as="sourcePoint" />
            <mxPoint x="719.8" y="160" as="targetPoint" />
          </mxGeometry>
        </mxCell>
        <mxCell id="KGmYxeqbnvMfP7wxilmC-19" value="" style="endArrow=none;dashed=1;html=1;dashPattern=1 3;strokeWidth=1;rounded=0;" edge="1" parent="1">
          <mxGeometry width="50" height="50" relative="1" as="geometry">
            <mxPoint x="479.79999999999995" y="480" as="sourcePoint" />
            <mxPoint x="479.79999999999995" y="160" as="targetPoint" />
          </mxGeometry>
        </mxCell>
        <mxCell id="KGmYxeqbnvMfP7wxilmC-20" value="" style="endArrow=none;dashed=1;html=1;dashPattern=1 3;strokeWidth=1;rounded=0;" edge="1" parent="1">
          <mxGeometry width="50" height="50" relative="1" as="geometry">
            <mxPoint x="439.79999999999995" y="480" as="sourcePoint" />
            <mxPoint x="439.79999999999995" y="160" as="targetPoint" />
          </mxGeometry>
        </mxCell>
        <mxCell id="KGmYxeqbnvMfP7wxilmC-21" value="" style="endArrow=none;dashed=1;html=1;dashPattern=1 3;strokeWidth=1;rounded=0;" edge="1" parent="1">
          <mxGeometry width="50" height="50" relative="1" as="geometry">
            <mxPoint x="399.79999999999995" y="480" as="sourcePoint" />
            <mxPoint x="399.79999999999995" y="160" as="targetPoint" />
          </mxGeometry>
        </mxCell>
        <mxCell id="KGmYxeqbnvMfP7wxilmC-22" value="" style="endArrow=none;dashed=1;html=1;dashPattern=1 3;strokeWidth=1;rounded=0;" edge="1" parent="1">
          <mxGeometry width="50" height="50" relative="1" as="geometry">
            <mxPoint x="359.79999999999995" y="480" as="sourcePoint" />
            <mxPoint x="359.79999999999995" y="160" as="targetPoint" />
          </mxGeometry>
        </mxCell>
        <mxCell id="KGmYxeqbnvMfP7wxilmC-23" value="" style="endArrow=none;dashed=1;html=1;dashPattern=1 3;strokeWidth=1;rounded=0;" edge="1" parent="1">
          <mxGeometry width="50" height="50" relative="1" as="geometry">
            <mxPoint x="320" y="480" as="sourcePoint" />
            <mxPoint x="320" y="160" as="targetPoint" />
          </mxGeometry>
        </mxCell>
        <mxCell id="KGmYxeqbnvMfP7wxilmC-24" value="" style="endArrow=none;dashed=1;html=1;dashPattern=1 3;strokeWidth=1;rounded=0;" edge="1" parent="1">
          <mxGeometry width="50" height="50" relative="1" as="geometry">
            <mxPoint x="760" y="200" as="sourcePoint" />
            <mxPoint x="280" y="200" as="targetPoint" />
          </mxGeometry>
        </mxCell>
        <mxCell id="KGmYxeqbnvMfP7wxilmC-25" value="" style="endArrow=none;dashed=1;html=1;dashPattern=1 3;strokeWidth=1;rounded=0;" edge="1" parent="1">
          <mxGeometry width="50" height="50" relative="1" as="geometry">
            <mxPoint x="760" y="240" as="sourcePoint" />
            <mxPoint x="280" y="240" as="targetPoint" />
          </mxGeometry>
        </mxCell>
        <mxCell id="KGmYxeqbnvMfP7wxilmC-26" value="" style="endArrow=none;dashed=1;html=1;dashPattern=1 3;strokeWidth=1;rounded=0;" edge="1" parent="1">
          <mxGeometry width="50" height="50" relative="1" as="geometry">
            <mxPoint x="760" y="280" as="sourcePoint" />
            <mxPoint x="280" y="280" as="targetPoint" />
          </mxGeometry>
        </mxCell>
        <mxCell id="KGmYxeqbnvMfP7wxilmC-27" value="" style="endArrow=none;dashed=1;html=1;dashPattern=1 3;strokeWidth=1;rounded=0;" edge="1" parent="1">
          <mxGeometry width="50" height="50" relative="1" as="geometry">
            <mxPoint x="760" y="440" as="sourcePoint" />
            <mxPoint x="280" y="440" as="targetPoint" />
          </mxGeometry>
        </mxCell>
        <mxCell id="KGmYxeqbnvMfP7wxilmC-28" value="" style="endArrow=none;dashed=1;html=1;dashPattern=1 3;strokeWidth=1;rounded=0;" edge="1" parent="1">
          <mxGeometry width="50" height="50" relative="1" as="geometry">
            <mxPoint x="760" y="400" as="sourcePoint" />
            <mxPoint x="280" y="400" as="targetPoint" />
          </mxGeometry>
        </mxCell>
        <mxCell id="KGmYxeqbnvMfP7wxilmC-29" value="" style="endArrow=none;dashed=1;html=1;dashPattern=1 3;strokeWidth=1;rounded=0;" edge="1" parent="1">
          <mxGeometry width="50" height="50" relative="1" as="geometry">
            <mxPoint x="760" y="360" as="sourcePoint" />
            <mxPoint x="280" y="360" as="targetPoint" />
          </mxGeometry>
        </mxCell>
        <mxCell id="KGmYxeqbnvMfP7wxilmC-31" value="labels" parent="0" />
        <mxCell id="KGmYxeqbnvMfP7wxilmC-6" value="100" style="text;html=1;align=center;verticalAlign=bottom;whiteSpace=wrap;rounded=0;fontSize=10;fillColor=default;spacing=0;" vertex="1" parent="KGmYxeqbnvMfP7wxilmC-31">
          <mxGeometry x="540" y="322" width="40" height="12" as="geometry" />
        </mxCell>
        <mxCell id="KGmYxeqbnvMfP7wxilmC-7" value="200" style="text;html=1;align=center;verticalAlign=bottom;whiteSpace=wrap;rounded=0;fontSize=10;fillColor=default;spacing=0;" vertex="1" parent="KGmYxeqbnvMfP7wxilmC-31">
          <mxGeometry x="580" y="322" width="40" height="12" as="geometry" />
        </mxCell>
        <mxCell id="KGmYxeqbnvMfP7wxilmC-8" value="300" style="text;html=1;align=center;verticalAlign=bottom;whiteSpace=wrap;rounded=0;fontSize=10;fillColor=default;spacing=0;" vertex="1" parent="KGmYxeqbnvMfP7wxilmC-31">
          <mxGeometry x="620" y="322" width="40" height="12" as="geometry" />
        </mxCell>
        <mxCell id="KGmYxeqbnvMfP7wxilmC-9" value="400" style="text;html=1;align=center;verticalAlign=bottom;whiteSpace=wrap;rounded=0;fontSize=10;fillColor=default;spacing=0;" vertex="1" parent="KGmYxeqbnvMfP7wxilmC-31">
          <mxGeometry x="660" y="322" width="40" height="12" as="geometry" />
        </mxCell>
        <mxCell id="KGmYxeqbnvMfP7wxilmC-10" value="500" style="text;html=1;align=center;verticalAlign=bottom;whiteSpace=wrap;rounded=0;fontSize=10;fillColor=default;spacing=0;" vertex="1" parent="KGmYxeqbnvMfP7wxilmC-31">
          <mxGeometry x="700" y="322" width="40" height="12" as="geometry" />
        </mxCell>
        <mxCell id="KGmYxeqbnvMfP7wxilmC-11" value="600" style="text;html=1;align=center;verticalAlign=bottom;whiteSpace=wrap;rounded=0;fontSize=10;fillColor=default;spacing=0;" vertex="1" parent="KGmYxeqbnvMfP7wxilmC-31">
          <mxGeometry x="740" y="322" width="40" height="12" as="geometry" />
        </mxCell>
        <mxCell id="KGmYxeqbnvMfP7wxilmC-32" value="-600" style="text;html=1;align=center;verticalAlign=bottom;whiteSpace=wrap;rounded=0;fontSize=10;fillColor=default;spacing=0;" vertex="1" parent="KGmYxeqbnvMfP7wxilmC-31">
          <mxGeometry x="260" y="322" width="40" height="12" as="geometry" />
        </mxCell>
        <mxCell id="KGmYxeqbnvMfP7wxilmC-33" value="-100" style="text;html=1;align=center;verticalAlign=bottom;whiteSpace=wrap;rounded=0;fontSize=10;fillColor=default;spacing=0;" vertex="1" parent="KGmYxeqbnvMfP7wxilmC-31">
          <mxGeometry x="460" y="322" width="40" height="12" as="geometry" />
        </mxCell>
        <mxCell id="KGmYxeqbnvMfP7wxilmC-34" value="-200" style="text;html=1;align=center;verticalAlign=bottom;whiteSpace=wrap;rounded=0;fontSize=10;fillColor=default;spacing=0;" vertex="1" parent="KGmYxeqbnvMfP7wxilmC-31">
          <mxGeometry x="420" y="322" width="40" height="12" as="geometry" />
        </mxCell>
        <mxCell id="KGmYxeqbnvMfP7wxilmC-35" value="-300" style="text;html=1;align=center;verticalAlign=bottom;whiteSpace=wrap;rounded=0;fontSize=10;fillColor=default;spacing=0;" vertex="1" parent="KGmYxeqbnvMfP7wxilmC-31">
          <mxGeometry x="380" y="322" width="40" height="12" as="geometry" />
        </mxCell>
        <mxCell id="KGmYxeqbnvMfP7wxilmC-36" value="-400" style="text;html=1;align=center;verticalAlign=bottom;whiteSpace=wrap;rounded=0;fontSize=10;fillColor=default;spacing=0;" vertex="1" parent="KGmYxeqbnvMfP7wxilmC-31">
          <mxGeometry x="340" y="322" width="40" height="12" as="geometry" />
        </mxCell>
        <mxCell id="KGmYxeqbnvMfP7wxilmC-37" value="-500" style="text;html=1;align=center;verticalAlign=bottom;whiteSpace=wrap;rounded=0;fontSize=10;fillColor=default;spacing=0;" vertex="1" parent="KGmYxeqbnvMfP7wxilmC-31">
          <mxGeometry x="300" y="322" width="40" height="12" as="geometry" />
        </mxCell>
        <mxCell id="KGmYxeqbnvMfP7wxilmC-38" value="100" style="text;html=1;align=center;verticalAlign=bottom;whiteSpace=wrap;rounded=0;fontSize=10;fillColor=default;spacing=0;" vertex="1" parent="KGmYxeqbnvMfP7wxilmC-31">
          <mxGeometry x="526.5" y="274" width="20" height="12" as="geometry" />
        </mxCell>
        <mxCell id="KGmYxeqbnvMfP7wxilmC-39" value="200" style="text;html=1;align=center;verticalAlign=bottom;whiteSpace=wrap;rounded=0;fontSize=10;fillColor=default;spacing=0;" vertex="1" parent="KGmYxeqbnvMfP7wxilmC-31">
          <mxGeometry x="526.5" y="234" width="20" height="12" as="geometry" />
        </mxCell>
        <mxCell id="KGmYxeqbnvMfP7wxilmC-40" value="300" style="text;html=1;align=center;verticalAlign=bottom;whiteSpace=wrap;rounded=0;fontSize=10;fillColor=default;spacing=0;" vertex="1" parent="KGmYxeqbnvMfP7wxilmC-31">
          <mxGeometry x="526.5" y="193" width="20" height="12" as="geometry" />
        </mxCell>
        <mxCell id="KGmYxeqbnvMfP7wxilmC-41" value="400" style="text;html=1;align=center;verticalAlign=bottom;whiteSpace=wrap;rounded=0;fontSize=10;fillColor=default;spacing=0;" vertex="1" parent="KGmYxeqbnvMfP7wxilmC-31">
          <mxGeometry x="526.5" y="154" width="20" height="12" as="geometry" />
        </mxCell>
        <mxCell id="KGmYxeqbnvMfP7wxilmC-42" value="-400" style="text;html=1;align=center;verticalAlign=bottom;whiteSpace=wrap;rounded=0;fontSize=10;fillColor=default;spacing=0;" vertex="1" parent="KGmYxeqbnvMfP7wxilmC-31">
          <mxGeometry x="523" y="473" width="27" height="12" as="geometry" />
        </mxCell>
        <mxCell id="KGmYxeqbnvMfP7wxilmC-43" value="-300" style="text;html=1;align=center;verticalAlign=bottom;whiteSpace=wrap;rounded=0;fontSize=10;fillColor=default;spacing=0;" vertex="1" parent="KGmYxeqbnvMfP7wxilmC-31">
          <mxGeometry x="526.5" y="433" width="20" height="12" as="geometry" />
        </mxCell>
        <mxCell id="KGmYxeqbnvMfP7wxilmC-44" value="-200" style="text;html=1;align=center;verticalAlign=bottom;whiteSpace=wrap;rounded=0;fontSize=10;fillColor=default;spacing=0;" vertex="1" parent="KGmYxeqbnvMfP7wxilmC-31">
          <mxGeometry x="526.5" y="392" width="20" height="12" as="geometry" />
        </mxCell>
        <mxCell id="KGmYxeqbnvMfP7wxilmC-45" value="-100" style="text;html=1;align=center;verticalAlign=bottom;whiteSpace=wrap;rounded=0;fontSize=10;fillColor=default;spacing=0;" vertex="1" parent="KGmYxeqbnvMfP7wxilmC-31">
          <mxGeometry x="526.5" y="353" width="20" height="12" as="geometry" />
        </mxCell>
        <mxCell id="KGmYxeqbnvMfP7wxilmC-46" value="" style="ellipse;whiteSpace=wrap;html=1;aspect=fixed;fillColor=#43B02A;strokeColor=none;" vertex="1" parent="KGmYxeqbnvMfP7wxilmC-31">
          <mxGeometry x="515" y="315" width="10" height="10" as="geometry" />
        </mxCell>
        <mxCell id="KGmYxeqbnvMfP7wxilmC-47" value="(0, 0)" style="text;html=1;align=left;verticalAlign=middle;whiteSpace=wrap;rounded=0;fontSize=10;fillColor=default;spacing=0;" vertex="1" parent="KGmYxeqbnvMfP7wxilmC-31">
          <mxGeometry x="310" y="486.25" width="40" height="15.5" as="geometry" />
        </mxCell>
        <mxCell id="KGmYxeqbnvMfP7wxilmC-48" value="" style="ellipse;whiteSpace=wrap;html=1;aspect=fixed;fillColor=#43B02A;strokeColor=none;" vertex="1" parent="KGmYxeqbnvMfP7wxilmC-31">
          <mxGeometry x="290" y="490" width="10" height="10" as="geometry" />
        </mxCell>
        <mxCell id="KGmYxeqbnvMfP7wxilmC-49" value="(200, 100)" style="text;html=1;align=left;verticalAlign=middle;whiteSpace=wrap;rounded=0;fontSize=10;fillColor=default;spacing=0;" vertex="1" parent="KGmYxeqbnvMfP7wxilmC-31">
          <mxGeometry x="380" y="483" width="50" height="21" as="geometry" />
        </mxCell>
        <mxCell id="KGmYxeqbnvMfP7wxilmC-50" value="" style="ellipse;whiteSpace=wrap;html=1;aspect=fixed;fillColor=#005587;strokeColor=none;" vertex="1" parent="KGmYxeqbnvMfP7wxilmC-31">
          <mxGeometry x="360" y="490" width="10" height="10" as="geometry" />
        </mxCell>
        <mxCell id="KGmYxeqbnvMfP7wxilmC-51" value="" style="ellipse;whiteSpace=wrap;html=1;aspect=fixed;fillColor=#005587;strokeColor=none;" vertex="1" parent="KGmYxeqbnvMfP7wxilmC-31">
          <mxGeometry x="595" y="275" width="10" height="10" as="geometry" />
        </mxCell>
        <mxCell id="KGmYxeqbnvMfP7wxilmC-52" value="(???, ???)" style="text;html=1;align=left;verticalAlign=middle;whiteSpace=wrap;rounded=0;fontSize=10;fillColor=default;spacing=0;" vertex="1" parent="KGmYxeqbnvMfP7wxilmC-31">
          <mxGeometry x="465" y="483" width="50" height="21" as="geometry" />
        </mxCell>
        <mxCell id="KGmYxeqbnvMfP7wxilmC-53" value="" style="ellipse;whiteSpace=wrap;html=1;aspect=fixed;fillColor=#f8cecc;strokeColor=none;" vertex="1" parent="KGmYxeqbnvMfP7wxilmC-31">
          <mxGeometry x="445" y="490" width="10" height="10" as="geometry" />
        </mxCell>
        <mxCell id="KGmYxeqbnvMfP7wxilmC-54" value="" style="ellipse;whiteSpace=wrap;html=1;aspect=fixed;fillColor=#f8cecc;strokeColor=none;" vertex="1" parent="KGmYxeqbnvMfP7wxilmC-31">
          <mxGeometry x="675" y="395" width="10" height="10" as="geometry" />
        </mxCell>
        <mxCell id="KGmYxeqbnvMfP7wxilmC-56" value="(???, ???)" style="text;html=1;align=left;verticalAlign=middle;whiteSpace=wrap;rounded=0;fontSize=10;fillColor=default;spacing=0;" vertex="1" parent="KGmYxeqbnvMfP7wxilmC-31">
          <mxGeometry x="546.5" y="483" width="50" height="21" as="geometry" />
        </mxCell>
        <mxCell id="KGmYxeqbnvMfP7wxilmC-57" value="" style="ellipse;whiteSpace=wrap;html=1;aspect=fixed;fillColor=#FF8000;strokeColor=none;" vertex="1" parent="KGmYxeqbnvMfP7wxilmC-31">
          <mxGeometry x="526.5" y="490" width="10" height="10" as="geometry" />
        </mxCell>
        <mxCell id="KGmYxeqbnvMfP7wxilmC-58" value="" style="ellipse;whiteSpace=wrap;html=1;aspect=fixed;fillColor=#FF8000;strokeColor=none;" vertex="1" parent="KGmYxeqbnvMfP7wxilmC-31">
          <mxGeometry x="315" y="355" width="10" height="10" as="geometry" />
        </mxCell>
      </root>
    </mxGraphModel>
  </diagram>
</mxfile>
